<svg xmlns="http://www.w3.org/2000/svg" width="600" height="400" viewBox="0 0 600 400">
  <!-- Background -->
  <rect width="600" height="400" fill="#f5f5f5"/>
  
  <!-- Border -->
  <rect x="2" y="2" width="596" height="396" fill="none" stroke="#1a4b8c" stroke-width="4"/>
  
  <!-- Icon -->
  <path fill="#1a4b8c" d="M300 160c-22.1 0-40 17.9-40 40s17.9 40 40 40 40-17.9 40-40-17.9-40-40-40zm0 60c-11 0-20-9-20-20s9-20 20-20 20 9 20 20-9 20-20 20z"/>
  <path fill="#1a4b8c" d="M380 140h-60c-11 0-20-9-20-20s9-20 20-20h60c11 0 20 9 20 20s-9 20-20 20z"/>
  <path fill="#1a4b8c" d="M220 300h160c11 0 20-9 20-20s-9-20-20-20H220c-11 0-20 9-20 20s9 20 20 20z"/>
  
  <!-- Text -->
  <text x="300" y="200" font-family="Arial" font-size="24" fill="#1a4b8c" text-anchor="middle">Immagine Segnaposto</text>
</svg> 